<svg width="316" height="248" viewBox="0 0 316 248" fill="none" xmlns="http://www.w3.org/2000/svg">
<path d="M79.7012 144V132.08H84.7252C85.5146 132.08 86.1866 132.219 86.7412 132.496C87.3066 132.763 87.7386 133.147 88.0372 133.648C88.3466 134.139 88.5012 134.736 88.5012 135.44C88.5012 135.984 88.3519 136.496 88.0532 136.976C87.7652 137.445 87.3012 137.835 86.6612 138.144V137.136C87.2479 137.36 87.7119 137.637 88.0532 137.968C88.3946 138.299 88.6346 138.667 88.7732 139.072C88.9119 139.477 88.9812 139.904 88.9812 140.352C88.9812 141.493 88.6026 142.389 87.8452 143.04C87.0986 143.68 86.0586 144 84.7252 144H79.7012ZM81.8772 142.08H84.9492C85.5146 142.08 85.9626 141.925 86.2932 141.616C86.6346 141.296 86.8052 140.875 86.8052 140.352C86.8052 139.829 86.6346 139.408 86.2932 139.088C85.9626 138.768 85.5146 138.608 84.9492 138.608H81.8772V142.08ZM81.8772 136.704H84.8372C85.2852 136.704 85.6426 136.576 85.9092 136.32C86.1759 136.053 86.3092 135.712 86.3092 135.296C86.3092 134.88 86.1759 134.549 85.9092 134.304C85.6426 134.059 85.2852 133.936 84.8372 133.936H81.8772V136.704ZM89.3077 144L93.4197 132.08H96.2357L100.348 144H97.9797L97.1317 141.44H92.5237L91.6597 144H89.3077ZM93.1477 139.52H96.5077L94.5237 133.584H95.1317L93.1477 139.52ZM101.194 144V132.08H102.89L109.45 140.912L108.57 141.088V132.08H110.746V144H109.034L102.57 135.104L103.37 134.928V144H101.194ZM118.174 144.192C117.32 144.192 116.531 144.037 115.806 143.728C115.091 143.419 114.462 142.987 113.918 142.432C113.384 141.877 112.968 141.227 112.67 140.48C112.371 139.733 112.222 138.917 112.222 138.032C112.222 137.147 112.366 136.331 112.654 135.584C112.952 134.827 113.368 134.176 113.902 133.632C114.446 133.077 115.08 132.651 115.806 132.352C116.531 132.043 117.32 131.888 118.174 131.888C119.027 131.888 119.79 132.032 120.462 132.32C121.144 132.608 121.72 132.992 122.19 133.472C122.659 133.941 122.995 134.459 123.198 135.024L121.246 135.936C121.022 135.339 120.643 134.848 120.11 134.464C119.576 134.069 118.931 133.872 118.174 133.872C117.427 133.872 116.766 134.048 116.19 134.4C115.624 134.752 115.182 135.237 114.862 135.856C114.552 136.475 114.398 137.2 114.398 138.032C114.398 138.864 114.552 139.595 114.862 140.224C115.182 140.843 115.624 141.328 116.19 141.68C116.766 142.032 117.427 142.208 118.174 142.208C118.931 142.208 119.576 142.016 120.11 141.632C120.643 141.237 121.022 140.741 121.246 140.144L123.198 141.056C122.995 141.621 122.659 142.144 122.19 142.624C121.72 143.093 121.144 143.472 120.462 143.76C119.79 144.048 119.027 144.192 118.174 144.192ZM130.356 144.192C129.482 144.192 128.666 144.037 127.908 143.728C127.151 143.419 126.49 142.987 125.924 142.432C125.359 141.877 124.916 141.227 124.596 140.48C124.287 139.723 124.132 138.907 124.132 138.032C124.132 137.147 124.287 136.331 124.596 135.584C124.906 134.837 125.343 134.187 125.908 133.632C126.474 133.077 127.135 132.651 127.892 132.352C128.65 132.043 129.471 131.888 130.356 131.888C131.242 131.888 132.063 132.043 132.82 132.352C133.578 132.661 134.239 133.093 134.804 133.648C135.37 134.192 135.807 134.837 136.116 135.584C136.436 136.331 136.596 137.147 136.596 138.032C136.596 138.907 136.436 139.723 136.116 140.48C135.796 141.227 135.354 141.877 134.788 142.432C134.223 142.987 133.562 143.419 132.804 143.728C132.058 144.037 131.242 144.192 130.356 144.192ZM130.356 142.208C130.943 142.208 131.482 142.107 131.972 141.904C132.463 141.691 132.89 141.397 133.252 141.024C133.626 140.651 133.908 140.208 134.1 139.696C134.303 139.184 134.404 138.629 134.404 138.032C134.404 137.435 134.303 136.885 134.1 136.384C133.908 135.872 133.626 135.429 133.252 135.056C132.89 134.672 132.463 134.379 131.972 134.176C131.482 133.973 130.943 133.872 130.356 133.872C129.78 133.872 129.247 133.973 128.756 134.176C128.266 134.379 127.834 134.672 127.46 135.056C127.098 135.429 126.815 135.872 126.612 136.384C126.41 136.885 126.308 137.435 126.308 138.032C126.308 138.629 126.41 139.184 126.612 139.696C126.815 140.208 127.098 140.651 127.46 141.024C127.834 141.397 128.266 141.691 128.756 141.904C129.247 142.107 129.78 142.208 130.356 142.208ZM146.015 144.192C145.162 144.192 144.372 144.037 143.647 143.728C142.932 143.419 142.303 142.987 141.759 142.432C141.226 141.877 140.81 141.227 140.511 140.48C140.212 139.733 140.063 138.917 140.063 138.032C140.063 137.147 140.207 136.331 140.495 135.584C140.794 134.827 141.21 134.176 141.743 133.632C142.287 133.077 142.922 132.651 143.647 132.352C144.372 132.043 145.162 131.888 146.015 131.888C146.868 131.888 147.631 132.032 148.303 132.32C148.986 132.608 149.562 132.992 150.031 133.472C150.5 133.941 150.836 134.459 151.039 135.024L149.087 135.936C148.863 135.339 148.484 134.848 147.951 134.464C147.418 134.069 146.772 133.872 146.015 133.872C145.268 133.872 144.607 134.048 144.031 134.4C143.466 134.752 143.023 135.237 142.703 135.856C142.394 136.475 142.239 137.2 142.239 138.032C142.239 138.864 142.394 139.595 142.703 140.224C143.023 140.843 143.466 141.328 144.031 141.68C144.607 142.032 145.268 142.208 146.015 142.208C146.772 142.208 147.418 142.016 147.951 141.632C148.484 141.237 148.863 140.741 149.087 140.144L151.039 141.056C150.836 141.621 150.5 142.144 150.031 142.624C149.562 143.093 148.986 143.472 148.303 143.76C147.631 144.048 146.868 144.192 146.015 144.192ZM152.326 144V132.08H160.246V134H154.502V137.056H159.926V138.976H154.502V142.08H160.246V144H152.326ZM161.361 144V132.08H163.057L169.617 140.912L168.737 141.088V132.08H170.913V144H169.201L162.737 135.104L163.537 134.928V144H161.361ZM174.853 144V134H171.765V132.08H180.085V134H177.045V144H174.853ZM180.932 144V132.08H185.364C186.175 132.08 186.89 132.229 187.508 132.528C188.138 132.816 188.628 133.243 188.98 133.808C189.332 134.363 189.508 135.04 189.508 135.84C189.508 136.661 189.311 137.36 188.916 137.936C188.532 138.512 188.01 138.939 187.348 139.216L190.084 144H187.62L184.692 138.768L186.1 139.6H183.108V144H180.932ZM183.108 137.68H185.396C185.791 137.68 186.132 137.605 186.42 137.456C186.708 137.296 186.932 137.077 187.092 136.8C187.252 136.523 187.332 136.203 187.332 135.84C187.332 135.467 187.252 135.147 187.092 134.88C186.932 134.603 186.708 134.389 186.42 134.24C186.132 134.08 185.791 134 185.396 134H183.108V137.68ZM190.055 144L194.167 132.08H196.983L201.095 144H198.727L197.879 141.44H193.271L192.407 144H190.055ZM193.895 139.52H197.255L195.271 133.584H195.879L193.895 139.52ZM201.941 144V132.08H204.117V142.08H209.221V144H201.941ZM212.512 144V132.08H216.4C217.659 132.08 218.752 132.336 219.68 132.848C220.619 133.349 221.344 134.048 221.856 134.944C222.368 135.829 222.624 136.859 222.624 138.032C222.624 139.195 222.368 140.229 221.856 141.136C221.344 142.032 220.619 142.736 219.68 143.248C218.752 143.749 217.659 144 216.4 144H212.512ZM214.688 142.08H216.448C217.259 142.08 217.958 141.915 218.544 141.584C219.142 141.243 219.606 140.773 219.936 140.176C220.267 139.568 220.432 138.853 220.432 138.032C220.432 137.2 220.267 136.485 219.936 135.888C219.606 135.291 219.142 134.827 218.544 134.496C217.958 134.165 217.259 134 216.448 134H214.688V142.08ZM229.748 144.192C228.874 144.192 228.058 144.037 227.3 143.728C226.543 143.419 225.882 142.987 225.316 142.432C224.751 141.877 224.308 141.227 223.988 140.48C223.679 139.723 223.524 138.907 223.524 138.032C223.524 137.147 223.679 136.331 223.988 135.584C224.298 134.837 224.735 134.187 225.3 133.632C225.866 133.077 226.527 132.651 227.284 132.352C228.042 132.043 228.863 131.888 229.748 131.888C230.634 131.888 231.455 132.043 232.212 132.352C232.97 132.661 233.631 133.093 234.196 133.648C234.762 134.192 235.199 134.837 235.508 135.584C235.828 136.331 235.988 137.147 235.988 138.032C235.988 138.907 235.828 139.723 235.508 140.48C235.188 141.227 234.746 141.877 234.18 142.432C233.615 142.987 232.954 143.419 232.196 143.728C231.45 144.037 230.634 144.192 229.748 144.192ZM229.748 142.208C230.335 142.208 230.874 142.107 231.364 141.904C231.855 141.691 232.282 141.397 232.644 141.024C233.018 140.651 233.3 140.208 233.492 139.696C233.695 139.184 233.796 138.629 233.796 138.032C233.796 137.435 233.695 136.885 233.492 136.384C233.3 135.872 233.018 135.429 232.644 135.056C232.282 134.672 231.855 134.379 231.364 134.176C230.874 133.973 230.335 133.872 229.748 133.872C229.172 133.872 228.639 133.973 228.148 134.176C227.658 134.379 227.226 134.672 226.852 135.056C226.49 135.429 226.207 135.872 226.004 136.384C225.802 136.885 225.7 137.435 225.7 138.032C225.7 138.629 225.802 139.184 226.004 139.696C226.207 140.208 226.49 140.651 226.852 141.024C227.226 141.397 227.658 141.691 228.148 141.904C228.639 142.107 229.172 142.208 229.748 142.208ZM131.817 165V153.08H136.841C137.63 153.08 138.302 153.219 138.857 153.496C139.422 153.763 139.854 154.147 140.153 154.648C140.462 155.139 140.617 155.736 140.617 156.44C140.617 156.984 140.468 157.496 140.169 157.976C139.881 158.445 139.417 158.835 138.777 159.144V158.136C139.364 158.36 139.828 158.637 140.169 158.968C140.51 159.299 140.75 159.667 140.889 160.072C141.028 160.477 141.097 160.904 141.097 161.352C141.097 162.493 140.718 163.389 139.961 164.04C139.214 164.68 138.174 165 136.841 165H131.817ZM133.993 163.08H137.065C137.63 163.08 138.078 162.925 138.409 162.616C138.75 162.296 138.921 161.875 138.921 161.352C138.921 160.829 138.75 160.408 138.409 160.088C138.078 159.768 137.63 159.608 137.065 159.608H133.993V163.08ZM133.993 157.704H136.953C137.401 157.704 137.758 157.576 138.025 157.32C138.292 157.053 138.425 156.712 138.425 156.296C138.425 155.88 138.292 155.549 138.025 155.304C137.758 155.059 137.401 154.936 136.953 154.936H133.993V157.704ZM142.399 165V153.08H146.831C147.642 153.08 148.357 153.229 148.975 153.528C149.605 153.816 150.095 154.243 150.447 154.808C150.799 155.363 150.975 156.04 150.975 156.84C150.975 157.661 150.778 158.36 150.383 158.936C149.999 159.512 149.477 159.939 148.815 160.216L151.551 165H149.087L146.159 159.768L147.567 160.6H144.575V165H142.399ZM144.575 158.68H146.863C147.258 158.68 147.599 158.605 147.887 158.456C148.175 158.296 148.399 158.077 148.559 157.8C148.719 157.523 148.799 157.203 148.799 156.84C148.799 156.467 148.719 156.147 148.559 155.88C148.399 155.603 148.175 155.389 147.887 155.24C147.599 155.08 147.258 155 146.863 155H144.575V158.68ZM151.521 165L155.633 153.08H158.449L162.561 165H160.193L159.345 162.44H154.737L153.873 165H151.521ZM155.361 160.52H158.721L156.737 154.584H157.345L155.361 160.52ZM167.508 165.192C166.751 165.192 166.047 165.053 165.396 164.776C164.756 164.499 164.201 164.115 163.732 163.624C163.273 163.123 162.937 162.541 162.724 161.88L164.532 161.096C164.82 161.779 165.236 162.317 165.78 162.712C166.324 163.096 166.937 163.288 167.62 163.288C168.004 163.288 168.335 163.229 168.612 163.112C168.9 162.984 169.119 162.813 169.268 162.6C169.428 162.387 169.508 162.131 169.508 161.832C169.508 161.48 169.401 161.192 169.188 160.968C168.985 160.733 168.676 160.552 168.26 160.424L165.972 159.688C165.044 159.4 164.345 158.968 163.876 158.392C163.407 157.816 163.172 157.139 163.172 156.36C163.172 155.677 163.337 155.075 163.668 154.552C164.009 154.029 164.479 153.624 165.076 153.336C165.684 153.037 166.377 152.888 167.156 152.888C167.871 152.888 168.527 153.016 169.124 153.272C169.721 153.517 170.233 153.864 170.66 154.312C171.097 154.749 171.423 155.267 171.636 155.864L169.844 156.664C169.609 156.067 169.257 155.608 168.788 155.288C168.319 154.957 167.775 154.792 167.156 154.792C166.793 154.792 166.473 154.856 166.196 154.984C165.919 155.101 165.7 155.272 165.54 155.496C165.391 155.709 165.316 155.965 165.316 156.264C165.316 156.595 165.423 156.888 165.636 157.144C165.849 157.389 166.175 157.581 166.612 157.72L168.804 158.408C169.753 158.717 170.463 159.144 170.932 159.688C171.412 160.232 171.652 160.904 171.652 161.704C171.652 162.387 171.476 162.989 171.124 163.512C170.772 164.035 170.287 164.445 169.668 164.744C169.049 165.043 168.329 165.192 167.508 165.192ZM173.131 165V153.08H175.307V165H173.131ZM177.12 165V153.08H179.296V163.08H184.4V165H177.12Z" fill="#374151"/>
<path d="M48.6847 202V190.08H50.2527V200.56H55.4847V202H48.6847ZM56.5912 202V193.376H58.0792V202H56.5912ZM56.5912 192V190.08H58.0792V192H56.5912ZM63.9081 202.192C63.0654 202.192 62.3134 201.995 61.6521 201.6C61.0014 201.205 60.4894 200.667 60.1161 199.984C59.7428 199.301 59.5561 198.533 59.5561 197.68C59.5561 196.816 59.7428 196.048 60.1161 195.376C60.4894 194.704 61.0014 194.171 61.6521 193.776C62.3134 193.381 63.0654 193.184 63.9081 193.184C64.4734 193.184 65.0014 193.285 65.4921 193.488C65.9828 193.691 66.4148 193.963 66.7881 194.304C67.1614 194.645 67.4334 195.045 67.6041 195.504L66.2761 196.144C66.0734 195.696 65.7641 195.333 65.3481 195.056C64.9321 194.768 64.4521 194.624 63.9081 194.624C63.3854 194.624 62.9108 194.757 62.4841 195.024C62.0681 195.291 61.7374 195.653 61.4921 196.112C61.2468 196.571 61.1241 197.099 61.1241 197.696C61.1241 198.272 61.2468 198.795 61.4921 199.264C61.7374 199.723 62.0681 200.085 62.4841 200.352C62.9108 200.619 63.3854 200.752 63.9081 200.752C64.4521 200.752 64.9321 200.613 65.3481 200.336C65.7641 200.048 66.0734 199.669 66.2761 199.2L67.6041 199.872C67.4334 200.32 67.1614 200.72 66.7881 201.072C66.4148 201.413 65.9828 201.685 65.4921 201.888C65.0014 202.091 64.4734 202.192 63.9081 202.192ZM73.0367 202.192C72.2047 202.192 71.4634 201.995 70.8127 201.6C70.1621 201.205 69.6501 200.667 69.2767 199.984C68.9034 199.291 68.7167 198.517 68.7167 197.664C68.7167 196.8 68.8981 196.032 69.2607 195.36C69.6341 194.688 70.1354 194.16 70.7647 193.776C71.4047 193.381 72.1194 193.184 72.9087 193.184C73.5487 193.184 74.1141 193.301 74.6047 193.536C75.1061 193.76 75.5274 194.069 75.8687 194.464C76.2207 194.848 76.4874 195.291 76.6687 195.792C76.8607 196.283 76.9567 196.795 76.9567 197.328C76.9567 197.445 76.9461 197.579 76.9247 197.728C76.9141 197.867 76.8981 198 76.8767 198.128H69.8047V196.848H76.0127L75.3087 197.424C75.4047 196.869 75.3514 196.373 75.1487 195.936C74.9461 195.499 74.6474 195.152 74.2527 194.896C73.8581 194.64 73.4101 194.512 72.9087 194.512C72.4074 194.512 71.9487 194.64 71.5327 194.896C71.1167 195.152 70.7914 195.52 70.5567 196C70.3327 196.469 70.2421 197.029 70.2847 197.68C70.2421 198.309 70.3381 198.864 70.5727 199.344C70.8181 199.813 71.1594 200.181 71.5967 200.448C72.0447 200.704 72.5301 200.832 73.0527 200.832C73.6287 200.832 74.1141 200.699 74.5087 200.432C74.9034 200.165 75.2234 199.824 75.4687 199.408L76.7167 200.048C76.5461 200.443 76.2794 200.805 75.9167 201.136C75.5647 201.456 75.1434 201.712 74.6527 201.904C74.1727 202.096 73.6341 202.192 73.0367 202.192ZM78.4168 202V193.376H79.8728V195.056L79.6328 194.912C79.8462 194.368 80.1875 193.947 80.6568 193.648C81.1368 193.339 81.6968 193.184 82.3368 193.184C82.9555 193.184 83.5048 193.323 83.9848 193.6C84.4755 193.877 84.8595 194.261 85.1368 194.752C85.4248 195.243 85.5688 195.797 85.5688 196.416V202H84.0648V196.896C84.0648 196.416 83.9795 196.011 83.8088 195.68C83.6382 195.349 83.3928 195.093 83.0728 194.912C82.7635 194.72 82.4062 194.624 82.0008 194.624C81.5955 194.624 81.2328 194.72 80.9128 194.912C80.6035 195.093 80.3582 195.355 80.1768 195.696C79.9955 196.027 79.9048 196.427 79.9048 196.896V202H78.4168ZM91.2181 202.192C90.3754 202.192 89.6234 201.995 88.9621 201.6C88.3114 201.205 87.7994 200.667 87.4261 199.984C87.0528 199.301 86.8661 198.533 86.8661 197.68C86.8661 196.816 87.0528 196.048 87.4261 195.376C87.7994 194.704 88.3114 194.171 88.9621 193.776C89.6234 193.381 90.3754 193.184 91.2181 193.184C91.7834 193.184 92.3114 193.285 92.8021 193.488C93.2928 193.691 93.7248 193.963 94.0981 194.304C94.4714 194.645 94.7434 195.045 94.9141 195.504L93.5861 196.144C93.3834 195.696 93.0741 195.333 92.6581 195.056C92.2421 194.768 91.7621 194.624 91.2181 194.624C90.6954 194.624 90.2208 194.757 89.7941 195.024C89.3781 195.291 89.0474 195.653 88.8021 196.112C88.5568 196.571 88.4341 197.099 88.4341 197.696C88.4341 198.272 88.5568 198.795 88.8021 199.264C89.0474 199.723 89.3781 200.085 89.7941 200.352C90.2208 200.619 90.6954 200.752 91.2181 200.752C91.7621 200.752 92.2421 200.613 92.6581 200.336C93.0741 200.048 93.3834 199.669 93.5861 199.2L94.9141 199.872C94.7434 200.32 94.4714 200.72 94.0981 201.072C93.7248 201.413 93.2928 201.685 92.8021 201.888C92.3114 202.091 91.7834 202.192 91.2181 202.192ZM96.3787 202V193.376H97.8667V202H96.3787ZM96.3787 192V190.08H97.8667V192H96.3787ZM102.224 202.192C101.658 202.192 101.157 202.091 100.72 201.888C100.293 201.675 99.9569 201.387 99.7116 201.024C99.4663 200.651 99.3436 200.224 99.3436 199.744C99.3436 199.285 99.4396 198.875 99.6316 198.512C99.8343 198.139 100.144 197.824 100.56 197.568C100.986 197.312 101.52 197.131 102.16 197.024L105.36 196.496V197.744L102.496 198.224C101.941 198.32 101.536 198.496 101.28 198.752C101.034 199.008 100.912 199.323 100.912 199.696C100.912 200.048 101.05 200.341 101.328 200.576C101.616 200.811 101.973 200.928 102.4 200.928C102.944 200.928 103.413 200.816 103.808 200.592C104.213 200.357 104.528 200.043 104.752 199.648C104.986 199.253 105.104 198.816 105.104 198.336V196.144C105.104 195.675 104.928 195.296 104.576 195.008C104.234 194.709 103.781 194.56 103.216 194.56C102.725 194.56 102.288 194.688 101.904 194.944C101.53 195.189 101.253 195.52 101.072 195.936L99.7756 195.264C99.9356 194.869 100.192 194.517 100.544 194.208C100.896 193.888 101.306 193.637 101.776 193.456C102.245 193.275 102.736 193.184 103.248 193.184C103.909 193.184 104.49 193.312 104.992 193.568C105.493 193.813 105.882 194.16 106.16 194.608C106.448 195.045 106.592 195.557 106.592 196.144V202H105.136V200.368L105.408 200.464C105.226 200.805 104.981 201.104 104.672 201.36C104.362 201.616 104 201.819 103.584 201.968C103.168 202.117 102.714 202.192 102.224 202.192ZM112.339 202.192C111.528 202.192 110.797 201.995 110.147 201.6C109.507 201.205 109 200.667 108.627 199.984C108.253 199.301 108.067 198.539 108.067 197.696C108.067 196.832 108.253 196.064 108.627 195.392C109 194.709 109.507 194.171 110.147 193.776C110.797 193.381 111.528 193.184 112.339 193.184C113.053 193.184 113.688 193.339 114.243 193.648C114.797 193.947 115.235 194.352 115.555 194.864L115.315 195.232V189.888H116.819V202H115.363V200.16L115.555 200.416C115.256 200.981 114.819 201.419 114.243 201.728C113.677 202.037 113.043 202.192 112.339 202.192ZM112.467 200.752C113.011 200.752 113.496 200.619 113.923 200.352C114.349 200.085 114.685 199.723 114.931 199.264C115.187 198.795 115.315 198.272 115.315 197.696C115.315 197.109 115.187 196.587 114.931 196.128C114.685 195.659 114.349 195.291 113.923 195.024C113.496 194.757 113.011 194.624 112.467 194.624C111.933 194.624 111.448 194.763 111.011 195.04C110.584 195.307 110.248 195.669 110.003 196.128C109.757 196.576 109.635 197.099 109.635 197.696C109.635 198.272 109.757 198.795 110.003 199.264C110.248 199.723 110.584 200.085 111.011 200.352C111.437 200.619 111.923 200.752 112.467 200.752ZM122.738 202.192C121.906 202.192 121.154 202 120.482 201.616C119.81 201.221 119.277 200.683 118.882 200C118.487 199.317 118.29 198.544 118.29 197.68C118.29 196.816 118.482 196.048 118.866 195.376C119.261 194.704 119.794 194.171 120.466 193.776C121.138 193.381 121.895 193.184 122.738 193.184C123.57 193.184 124.322 193.381 124.994 193.776C125.666 194.16 126.194 194.688 126.578 195.36C126.973 196.032 127.17 196.805 127.17 197.68C127.17 198.555 126.967 199.333 126.562 200.016C126.157 200.688 125.618 201.221 124.946 201.616C124.285 202 123.549 202.192 122.738 202.192ZM122.738 200.752C123.271 200.752 123.751 200.619 124.178 200.352C124.615 200.085 124.957 199.717 125.202 199.248C125.458 198.779 125.586 198.256 125.586 197.68C125.586 197.093 125.458 196.576 125.202 196.128C124.957 195.669 124.615 195.307 124.178 195.04C123.751 194.763 123.271 194.624 122.738 194.624C122.194 194.624 121.703 194.763 121.266 195.04C120.839 195.307 120.498 195.669 120.242 196.128C119.986 196.576 119.858 197.093 119.858 197.68C119.858 198.256 119.986 198.779 120.242 199.248C120.498 199.717 120.839 200.085 121.266 200.352C121.703 200.619 122.194 200.752 122.738 200.752ZM130.916 205.2V193.376H132.372V195.232L132.18 194.864C132.5 194.352 132.938 193.947 133.492 193.648C134.047 193.339 134.682 193.184 135.396 193.184C136.207 193.184 136.932 193.381 137.572 193.776C138.223 194.171 138.735 194.709 139.108 195.392C139.482 196.064 139.668 196.832 139.668 197.696C139.668 198.539 139.482 199.301 139.108 199.984C138.735 200.667 138.223 201.205 137.572 201.6C136.932 201.995 136.202 202.192 135.38 202.192C134.687 202.192 134.052 202.037 133.476 201.728C132.911 201.419 132.474 200.981 132.164 200.416L132.404 200.16V205.2H130.916ZM135.268 200.752C135.812 200.752 136.298 200.619 136.724 200.352C137.151 200.085 137.482 199.723 137.716 199.264C137.962 198.795 138.084 198.272 138.084 197.696C138.084 197.099 137.962 196.576 137.716 196.128C137.482 195.669 137.151 195.307 136.724 195.04C136.298 194.763 135.812 194.624 135.268 194.624C134.724 194.624 134.234 194.757 133.796 195.024C133.37 195.291 133.028 195.659 132.772 196.128C132.527 196.587 132.404 197.109 132.404 197.696C132.404 198.272 132.527 198.795 132.772 199.264C133.028 199.723 133.37 200.085 133.796 200.352C134.234 200.619 134.724 200.752 135.268 200.752ZM145.107 202.192C144.275 202.192 143.534 201.995 142.883 201.6C142.233 201.205 141.721 200.667 141.347 199.984C140.974 199.291 140.787 198.517 140.787 197.664C140.787 196.8 140.969 196.032 141.331 195.36C141.705 194.688 142.206 194.16 142.835 193.776C143.475 193.381 144.19 193.184 144.979 193.184C145.619 193.184 146.185 193.301 146.675 193.536C147.177 193.76 147.598 194.069 147.939 194.464C148.291 194.848 148.558 195.291 148.739 195.792C148.931 196.283 149.027 196.795 149.027 197.328C149.027 197.445 149.017 197.579 148.995 197.728C148.985 197.867 148.969 198 148.947 198.128H141.875V196.848H148.083L147.379 197.424C147.475 196.869 147.422 196.373 147.219 195.936C147.017 195.499 146.718 195.152 146.323 194.896C145.929 194.64 145.481 194.512 144.979 194.512C144.478 194.512 144.019 194.64 143.603 194.896C143.187 195.152 142.862 195.52 142.627 196C142.403 196.469 142.313 197.029 142.355 197.68C142.313 198.309 142.409 198.864 142.643 199.344C142.889 199.813 143.23 200.181 143.667 200.448C144.115 200.704 144.601 200.832 145.123 200.832C145.699 200.832 146.185 200.699 146.579 200.432C146.974 200.165 147.294 199.824 147.539 199.408L148.787 200.048C148.617 200.443 148.35 200.805 147.987 201.136C147.635 201.456 147.214 201.712 146.723 201.904C146.243 202.096 145.705 202.192 145.107 202.192ZM150.487 202V189.888H151.975V202H150.487ZM157.9 202.192C157.068 202.192 156.316 202 155.644 201.616C154.972 201.221 154.439 200.683 154.044 200C153.65 199.317 153.452 198.544 153.452 197.68C153.452 196.816 153.644 196.048 154.028 195.376C154.423 194.704 154.956 194.171 155.628 193.776C156.3 193.381 157.058 193.184 157.9 193.184C158.732 193.184 159.484 193.381 160.156 193.776C160.828 194.16 161.356 194.688 161.74 195.36C162.135 196.032 162.332 196.805 162.332 197.68C162.332 198.555 162.13 199.333 161.724 200.016C161.319 200.688 160.78 201.221 160.108 201.616C159.447 202 158.711 202.192 157.9 202.192ZM157.9 200.752C158.434 200.752 158.914 200.619 159.34 200.352C159.778 200.085 160.119 199.717 160.364 199.248C160.62 198.779 160.748 198.256 160.748 197.68C160.748 197.093 160.62 196.576 160.364 196.128C160.119 195.669 159.778 195.307 159.34 195.04C158.914 194.763 158.434 194.624 157.9 194.624C157.356 194.624 156.866 194.763 156.428 195.04C156.002 195.307 155.66 195.669 155.404 196.128C155.148 196.576 155.02 197.093 155.02 197.68C155.02 198.256 155.148 198.779 155.404 199.248C155.66 199.717 156.002 200.085 156.428 200.352C156.866 200.619 157.356 200.752 157.9 200.752ZM166.255 202V190.08H171.263C171.977 190.08 172.591 190.208 173.103 190.464C173.625 190.72 174.025 191.083 174.303 191.552C174.591 192.011 174.735 192.56 174.735 193.2C174.735 193.787 174.58 194.32 174.271 194.8C173.972 195.269 173.529 195.637 172.943 195.904L172.927 195.312C173.439 195.504 173.86 195.76 174.191 196.08C174.532 196.389 174.788 196.752 174.959 197.168C175.129 197.573 175.215 198.005 175.215 198.464C175.215 199.563 174.863 200.427 174.159 201.056C173.455 201.685 172.495 202 171.279 202H166.255ZM167.823 200.56H171.343C172.036 200.56 172.591 200.373 173.007 200C173.423 199.627 173.631 199.12 173.631 198.48C173.631 197.84 173.423 197.333 173.007 196.96C172.591 196.576 172.036 196.384 171.343 196.384H167.823V200.56ZM167.823 194.976H171.231C171.807 194.976 172.271 194.811 172.623 194.48C172.975 194.139 173.151 193.707 173.151 193.184C173.151 192.64 172.975 192.224 172.623 191.936C172.271 191.648 171.807 191.504 171.231 191.504H167.823V194.976ZM179.205 202.192C178.64 202.192 178.138 202.091 177.701 201.888C177.274 201.675 176.938 201.387 176.693 201.024C176.448 200.651 176.325 200.224 176.325 199.744C176.325 199.285 176.421 198.875 176.613 198.512C176.816 198.139 177.125 197.824 177.541 197.568C177.968 197.312 178.501 197.131 179.141 197.024L182.341 196.496V197.744L179.477 198.224C178.922 198.32 178.517 198.496 178.261 198.752C178.016 199.008 177.893 199.323 177.893 199.696C177.893 200.048 178.032 200.341 178.309 200.576C178.597 200.811 178.954 200.928 179.381 200.928C179.925 200.928 180.394 200.816 180.789 200.592C181.194 200.357 181.509 200.043 181.733 199.648C181.968 199.253 182.085 198.816 182.085 198.336V196.144C182.085 195.675 181.909 195.296 181.557 195.008C181.216 194.709 180.762 194.56 180.197 194.56C179.706 194.56 179.269 194.688 178.885 194.944C178.512 195.189 178.234 195.52 178.053 195.936L176.757 195.264C176.917 194.869 177.173 194.517 177.525 194.208C177.877 193.888 178.288 193.637 178.757 193.456C179.226 193.275 179.717 193.184 180.229 193.184C180.89 193.184 181.472 193.312 181.973 193.568C182.474 193.813 182.864 194.16 183.141 194.608C183.429 195.045 183.573 195.557 183.573 196.144V202H182.117V200.368L182.389 200.464C182.208 200.805 181.962 201.104 181.653 201.36C181.344 201.616 180.981 201.819 180.565 201.968C180.149 202.117 179.696 202.192 179.205 202.192ZM185.4 202V193.376H186.856V195.056L186.616 194.912C186.829 194.368 187.171 193.947 187.64 193.648C188.12 193.339 188.68 193.184 189.32 193.184C189.939 193.184 190.488 193.323 190.968 193.6C191.459 193.877 191.843 194.261 192.12 194.752C192.408 195.243 192.552 195.797 192.552 196.416V202H191.048V196.896C191.048 196.416 190.963 196.011 190.792 195.68C190.621 195.349 190.376 195.093 190.056 194.912C189.747 194.72 189.389 194.624 188.984 194.624C188.579 194.624 188.216 194.72 187.896 194.912C187.587 195.093 187.341 195.355 187.16 195.696C186.979 196.027 186.888 196.427 186.888 196.896V202H185.4ZM198.201 202.192C197.359 202.192 196.607 201.995 195.945 201.6C195.295 201.205 194.783 200.667 194.409 199.984C194.036 199.301 193.849 198.533 193.849 197.68C193.849 196.816 194.036 196.048 194.409 195.376C194.783 194.704 195.295 194.171 195.945 193.776C196.607 193.381 197.359 193.184 198.201 193.184C198.767 193.184 199.295 193.285 199.785 193.488C200.276 193.691 200.708 193.963 201.081 194.304C201.455 194.645 201.727 195.045 201.897 195.504L200.569 196.144C200.367 195.696 200.057 195.333 199.641 195.056C199.225 194.768 198.745 194.624 198.201 194.624C197.679 194.624 197.204 194.757 196.777 195.024C196.361 195.291 196.031 195.653 195.785 196.112C195.54 196.571 195.417 197.099 195.417 197.696C195.417 198.272 195.54 198.795 195.785 199.264C196.031 199.723 196.361 200.085 196.777 200.352C197.204 200.619 197.679 200.752 198.201 200.752C198.745 200.752 199.225 200.613 199.641 200.336C200.057 200.048 200.367 199.669 200.569 199.2L201.897 199.872C201.727 200.32 201.455 200.72 201.081 201.072C200.708 201.413 200.276 201.685 199.785 201.888C199.295 202.091 198.767 202.192 198.201 202.192ZM207.458 202.192C206.626 202.192 205.874 202 205.202 201.616C204.53 201.221 203.997 200.683 203.602 200C203.207 199.317 203.01 198.544 203.01 197.68C203.01 196.816 203.202 196.048 203.586 195.376C203.981 194.704 204.514 194.171 205.186 193.776C205.858 193.381 206.615 193.184 207.458 193.184C208.29 193.184 209.042 193.381 209.714 193.776C210.386 194.16 210.914 194.688 211.298 195.36C211.693 196.032 211.89 196.805 211.89 197.68C211.89 198.555 211.687 199.333 211.282 200.016C210.877 200.688 210.338 201.221 209.666 201.616C209.005 202 208.269 202.192 207.458 202.192ZM207.458 200.752C207.991 200.752 208.471 200.619 208.898 200.352C209.335 200.085 209.677 199.717 209.922 199.248C210.178 198.779 210.306 198.256 210.306 197.68C210.306 197.093 210.178 196.576 209.922 196.128C209.677 195.669 209.335 195.307 208.898 195.04C208.471 194.763 207.991 194.624 207.458 194.624C206.914 194.624 206.423 194.763 205.986 195.04C205.559 195.307 205.218 195.669 204.962 196.128C204.706 196.576 204.578 197.093 204.578 197.68C204.578 198.256 204.706 198.779 204.962 199.248C205.218 199.717 205.559 200.085 205.986 200.352C206.423 200.619 206.914 200.752 207.458 200.752ZM221.3 202.192C220.458 202.192 219.679 202.043 218.964 201.744C218.26 201.435 217.642 201.003 217.108 200.448C216.586 199.893 216.18 199.243 215.892 198.496C215.604 197.749 215.46 196.933 215.46 196.048C215.46 195.152 215.604 194.331 215.892 193.584C216.18 192.837 216.586 192.187 217.108 191.632C217.631 191.077 218.25 190.651 218.964 190.352C219.679 190.043 220.458 189.888 221.3 189.888C222.122 189.888 222.858 190.032 223.508 190.32C224.17 190.608 224.724 190.981 225.172 191.44C225.631 191.899 225.956 192.389 226.148 192.912L224.708 193.568C224.431 192.907 223.999 192.373 223.412 191.968C222.826 191.552 222.122 191.344 221.3 191.344C220.468 191.344 219.727 191.541 219.076 191.936C218.436 192.331 217.935 192.88 217.572 193.584C217.21 194.288 217.028 195.109 217.028 196.048C217.028 196.976 217.21 197.792 217.572 198.496C217.935 199.2 218.436 199.749 219.076 200.144C219.727 200.539 220.468 200.736 221.3 200.736C222.122 200.736 222.826 200.533 223.412 200.128C223.999 199.712 224.431 199.173 224.708 198.512L226.148 199.168C225.956 199.691 225.631 200.181 225.172 200.64C224.724 201.099 224.17 201.472 223.508 201.76C222.858 202.048 222.122 202.192 221.3 202.192ZM231.437 202.192C230.605 202.192 229.863 201.995 229.213 201.6C228.562 201.205 228.05 200.667 227.677 199.984C227.303 199.291 227.117 198.517 227.117 197.664C227.117 196.8 227.298 196.032 227.661 195.36C228.034 194.688 228.535 194.16 229.165 193.776C229.805 193.381 230.519 193.184 231.309 193.184C231.949 193.184 232.514 193.301 233.005 193.536C233.506 193.76 233.927 194.069 234.269 194.464C234.621 194.848 234.887 195.291 235.069 195.792C235.261 196.283 235.357 196.795 235.357 197.328C235.357 197.445 235.346 197.579 235.325 197.728C235.314 197.867 235.298 198 235.277 198.128H228.205V196.848H234.413L233.709 197.424C233.805 196.869 233.751 196.373 233.549 195.936C233.346 195.499 233.047 195.152 232.653 194.896C232.258 194.64 231.81 194.512 231.309 194.512C230.807 194.512 230.349 194.64 229.933 194.896C229.517 195.152 229.191 195.52 228.957 196C228.733 196.469 228.642 197.029 228.685 197.68C228.642 198.309 228.738 198.864 228.973 199.344C229.218 199.813 229.559 200.181 229.997 200.448C230.445 200.704 230.93 200.832 231.453 200.832C232.029 200.832 232.514 200.699 232.909 200.432C233.303 200.165 233.623 199.824 233.869 199.408L235.117 200.048C234.946 200.443 234.679 200.805 234.317 201.136C233.965 201.456 233.543 201.712 233.053 201.904C232.573 202.096 232.034 202.192 231.437 202.192ZM236.817 202V193.376H238.273V195.056L238.033 194.912C238.246 194.368 238.588 193.947 239.057 193.648C239.537 193.339 240.097 193.184 240.737 193.184C241.356 193.184 241.905 193.323 242.385 193.6C242.876 193.877 243.26 194.261 243.537 194.752C243.825 195.243 243.969 195.797 243.969 196.416V202H242.465V196.896C242.465 196.416 242.38 196.011 242.209 195.68C242.038 195.349 241.793 195.093 241.473 194.912C241.164 194.72 240.806 194.624 240.401 194.624C239.996 194.624 239.633 194.72 239.313 194.912C239.004 195.093 238.758 195.355 238.577 195.696C238.396 196.027 238.305 196.427 238.305 196.896V202H236.817ZM249.122 202.096C248.279 202.096 247.629 201.856 247.17 201.376C246.722 200.896 246.498 200.219 246.498 199.344V194.8H244.93V193.376H245.25C245.634 193.376 245.938 193.259 246.162 193.024C246.386 192.789 246.498 192.48 246.498 192.096V191.392H247.986V193.376H249.922V194.8H247.986V199.296C247.986 199.584 248.029 199.835 248.114 200.048C248.21 200.261 248.365 200.432 248.578 200.56C248.791 200.677 249.074 200.736 249.426 200.736C249.501 200.736 249.591 200.731 249.698 200.72C249.815 200.709 249.922 200.699 250.018 200.688V202C249.879 202.032 249.725 202.053 249.554 202.064C249.383 202.085 249.239 202.096 249.122 202.096ZM251.482 202V193.376H252.938V194.96L252.778 194.736C252.981 194.245 253.29 193.883 253.706 193.648C254.122 193.403 254.629 193.28 255.226 193.28H255.754V194.688H255.002C254.394 194.688 253.903 194.88 253.53 195.264C253.157 195.637 252.97 196.171 252.97 196.864V202H251.482ZM259.124 202.192C258.558 202.192 258.057 202.091 257.62 201.888C257.193 201.675 256.857 201.387 256.612 201.024C256.366 200.651 256.244 200.224 256.244 199.744C256.244 199.285 256.34 198.875 256.532 198.512C256.734 198.139 257.044 197.824 257.46 197.568C257.886 197.312 258.42 197.131 259.06 197.024L262.26 196.496V197.744L259.396 198.224C258.841 198.32 258.436 198.496 258.18 198.752C257.934 199.008 257.812 199.323 257.812 199.696C257.812 200.048 257.95 200.341 258.228 200.576C258.516 200.811 258.873 200.928 259.3 200.928C259.844 200.928 260.313 200.816 260.708 200.592C261.113 200.357 261.428 200.043 261.652 199.648C261.886 199.253 262.004 198.816 262.004 198.336V196.144C262.004 195.675 261.828 195.296 261.476 195.008C261.134 194.709 260.681 194.56 260.116 194.56C259.625 194.56 259.188 194.688 258.804 194.944C258.43 195.189 258.153 195.52 257.972 195.936L256.676 195.264C256.836 194.869 257.092 194.517 257.444 194.208C257.796 193.888 258.206 193.637 258.676 193.456C259.145 193.275 259.636 193.184 260.148 193.184C260.809 193.184 261.39 193.312 261.892 193.568C262.393 193.813 262.782 194.16 263.06 194.608C263.348 195.045 263.492 195.557 263.492 196.144V202H262.036V200.368L262.308 200.464C262.126 200.805 261.881 201.104 261.572 201.36C261.262 201.616 260.9 201.819 260.484 201.968C260.068 202.117 259.614 202.192 259.124 202.192ZM265.319 202V189.888H266.807V202H265.319ZM131.863 223.192C131.052 223.192 130.322 222.995 129.671 222.6C129.031 222.205 128.524 221.667 128.151 220.984C127.778 220.301 127.591 219.539 127.591 218.696C127.591 217.832 127.778 217.064 128.151 216.392C128.524 215.709 129.031 215.171 129.671 214.776C130.322 214.381 131.052 214.184 131.863 214.184C132.578 214.184 133.212 214.339 133.767 214.648C134.322 214.947 134.759 215.352 135.079 215.864L134.839 216.232V210.888H136.343V223H134.887V221.16L135.079 221.416C134.78 221.981 134.343 222.419 133.767 222.728C133.202 223.037 132.567 223.192 131.863 223.192ZM131.991 221.752C132.535 221.752 133.02 221.619 133.447 221.352C133.874 221.085 134.21 220.723 134.455 220.264C134.711 219.795 134.839 219.272 134.839 218.696C134.839 218.109 134.711 217.587 134.455 217.128C134.21 216.659 133.874 216.291 133.447 216.024C133.02 215.757 132.535 215.624 131.991 215.624C131.458 215.624 130.972 215.763 130.535 216.04C130.108 216.307 129.772 216.669 129.527 217.128C129.282 217.576 129.159 218.099 129.159 218.696C129.159 219.272 129.282 219.795 129.527 220.264C129.772 220.723 130.108 221.085 130.535 221.352C130.962 221.619 131.447 221.752 131.991 221.752ZM142.262 223.192C141.43 223.192 140.678 223 140.006 222.616C139.334 222.221 138.801 221.683 138.406 221C138.012 220.317 137.814 219.544 137.814 218.68C137.814 217.816 138.006 217.048 138.39 216.376C138.785 215.704 139.318 215.171 139.99 214.776C140.662 214.381 141.42 214.184 142.262 214.184C143.094 214.184 143.846 214.381 144.518 214.776C145.19 215.16 145.718 215.688 146.102 216.36C146.497 217.032 146.694 217.805 146.694 218.68C146.694 219.555 146.492 220.333 146.086 221.016C145.681 221.688 145.142 222.221 144.47 222.616C143.809 223 143.073 223.192 142.262 223.192ZM142.262 221.752C142.796 221.752 143.276 221.619 143.702 221.352C144.14 221.085 144.481 220.717 144.726 220.248C144.982 219.779 145.11 219.256 145.11 218.68C145.11 218.093 144.982 217.576 144.726 217.128C144.481 216.669 144.14 216.307 143.702 216.04C143.276 215.763 142.796 215.624 142.262 215.624C141.718 215.624 141.228 215.763 140.79 216.04C140.364 216.307 140.022 216.669 139.766 217.128C139.51 217.576 139.382 218.093 139.382 218.68C139.382 219.256 139.51 219.779 139.766 220.248C140.022 220.717 140.364 221.085 140.79 221.352C141.228 221.619 141.718 221.752 142.262 221.752ZM150.617 223V211.08H155.625C156.339 211.08 156.953 211.208 157.465 211.464C157.987 211.72 158.387 212.083 158.665 212.552C158.953 213.011 159.097 213.56 159.097 214.2C159.097 214.787 158.942 215.32 158.633 215.8C158.334 216.269 157.891 216.637 157.305 216.904L157.289 216.312C157.801 216.504 158.222 216.76 158.553 217.08C158.894 217.389 159.15 217.752 159.321 218.168C159.491 218.573 159.577 219.005 159.577 219.464C159.577 220.563 159.225 221.427 158.521 222.056C157.817 222.685 156.857 223 155.641 223H150.617ZM152.185 221.56H155.705C156.398 221.56 156.953 221.373 157.369 221C157.785 220.627 157.993 220.12 157.993 219.48C157.993 218.84 157.785 218.333 157.369 217.96C156.953 217.576 156.398 217.384 155.705 217.384H152.185V221.56ZM152.185 215.976H155.593C156.169 215.976 156.633 215.811 156.985 215.48C157.337 215.139 157.513 214.707 157.513 214.184C157.513 213.64 157.337 213.224 156.985 212.936C156.633 212.648 156.169 212.504 155.593 212.504H152.185V215.976ZM161.039 223V214.376H162.495V215.96L162.335 215.736C162.537 215.245 162.847 214.883 163.263 214.648C163.679 214.403 164.185 214.28 164.783 214.28H165.311V215.688H164.559C163.951 215.688 163.46 215.88 163.087 216.264C162.713 216.637 162.527 217.171 162.527 217.864V223H161.039ZM168.68 223.192C168.115 223.192 167.614 223.091 167.176 222.888C166.75 222.675 166.414 222.387 166.168 222.024C165.923 221.651 165.8 221.224 165.8 220.744C165.8 220.285 165.896 219.875 166.088 219.512C166.291 219.139 166.6 218.824 167.016 218.568C167.443 218.312 167.976 218.131 168.616 218.024L171.816 217.496V218.744L168.952 219.224C168.398 219.32 167.992 219.496 167.736 219.752C167.491 220.008 167.368 220.323 167.368 220.696C167.368 221.048 167.507 221.341 167.784 221.576C168.072 221.811 168.43 221.928 168.856 221.928C169.4 221.928 169.87 221.816 170.264 221.592C170.67 221.357 170.984 221.043 171.208 220.648C171.443 220.253 171.56 219.816 171.56 219.336V217.144C171.56 216.675 171.384 216.296 171.032 216.008C170.691 215.709 170.238 215.56 169.672 215.56C169.182 215.56 168.744 215.688 168.36 215.944C167.987 216.189 167.71 216.52 167.528 216.936L166.232 216.264C166.392 215.869 166.648 215.517 167 215.208C167.352 214.888 167.763 214.637 168.232 214.456C168.702 214.275 169.192 214.184 169.704 214.184C170.366 214.184 170.947 214.312 171.448 214.568C171.95 214.813 172.339 215.16 172.616 215.608C172.904 216.045 173.048 216.557 173.048 217.144V223H171.592V221.368L171.864 221.464C171.683 221.805 171.438 222.104 171.128 222.36C170.819 222.616 170.456 222.819 170.04 222.968C169.624 223.117 169.171 223.192 168.68 223.192ZM177.964 223.192C177.1 223.192 176.348 222.979 175.708 222.552C175.068 222.125 174.614 221.549 174.348 220.824L175.532 220.248C175.777 220.76 176.113 221.165 176.54 221.464C176.966 221.763 177.441 221.912 177.964 221.912C178.433 221.912 178.822 221.8 179.132 221.576C179.441 221.352 179.596 221.059 179.596 220.696C179.596 220.44 179.521 220.237 179.372 220.088C179.233 219.928 179.062 219.805 178.86 219.72C178.657 219.624 178.47 219.555 178.3 219.512L177.004 219.144C176.225 218.92 175.654 218.6 175.292 218.184C174.94 217.768 174.764 217.283 174.764 216.728C174.764 216.216 174.892 215.773 175.148 215.4C175.414 215.016 175.772 214.717 176.22 214.504C176.678 214.291 177.19 214.184 177.756 214.184C178.513 214.184 179.19 214.376 179.788 214.76C180.396 215.144 180.828 215.683 181.084 216.376L179.868 216.936C179.676 216.488 179.388 216.136 179.004 215.88C178.62 215.613 178.188 215.48 177.708 215.48C177.27 215.48 176.924 215.592 176.668 215.816C176.412 216.029 176.284 216.301 176.284 216.632C176.284 216.877 176.348 217.08 176.476 217.24C176.604 217.389 176.758 217.507 176.94 217.592C177.121 217.667 177.297 217.731 177.468 217.784L178.876 218.2C179.58 218.403 180.124 218.717 180.508 219.144C180.902 219.571 181.1 220.083 181.1 220.68C181.1 221.16 180.966 221.592 180.7 221.976C180.433 222.36 180.065 222.659 179.596 222.872C179.126 223.085 178.582 223.192 177.964 223.192ZM182.567 223V214.376H184.055V223H182.567ZM182.567 213V211.08H184.055V213H182.567ZM185.884 223V210.888H187.372V223H185.884Z" fill="#374151"/>
<g clip-path="url(#clip0_1_966)">
<g clip-path="url(#clip1_1_966)">
<g clip-path="url(#clip2_1_966)">
<path fill-rule="evenodd" clip-rule="evenodd" d="M87.4235 85.7388C87.9888 85.4914 88.2715 85.0325 88.2715 84.4666C88.2715 83.4065 87.4588 82.8411 85.798 82.8053H83.2891V89.3073H86.1867C87.9182 89.3073 88.7663 88.7061 88.7663 87.4344C88.7663 86.5868 88.3069 86.0215 87.4235 85.7388ZM84.9146 83.9719H85.798C86.3634 83.9719 86.6465 84.2193 86.6465 84.714C86.6465 85.1375 86.3634 85.3849 85.798 85.3849H84.9146V83.9719ZM85.8686 88.1063H84.9146V86.5515H85.8686C86.6461 86.5515 87.0348 86.7989 87.0348 87.3642C87.0348 87.9291 86.6814 88.1063 85.8686 88.1063ZM203.116 85.7388C203.681 85.4914 203.964 85.0325 203.964 84.4666C203.964 83.4065 203.152 82.8411 201.49 82.8053H198.982V89.3073H201.88C203.611 89.3073 204.459 88.7061 204.459 87.4344C204.459 86.5868 204.035 86.0215 203.116 85.7388ZM200.607 83.9719H201.49C202.055 83.9719 202.339 84.2193 202.339 84.714C202.339 85.1375 202.056 85.3849 201.49 85.3849H200.607V83.9719ZM201.561 88.1063H200.607V86.5515H201.561C202.338 86.5515 202.728 86.7989 202.728 87.3642C202.728 87.9291 202.374 88.1063 201.561 88.1063ZM183.681 83.4772C183.079 83.0168 182.444 82.876 181.738 82.8053H178.557V89.3073H181.738C182.338 89.2719 182.868 89.1664 183.433 88.8126C184.423 88.177 184.953 87.2224 184.953 86.0568C184.953 84.9967 184.493 84.1128 183.681 83.4772ZM181.738 87.9645C181.631 87.9998 181.489 87.9998 181.384 87.9998H180.182V84.1128H181.384C181.489 84.1128 181.631 84.1128 181.738 84.1481C182.656 84.289 183.257 85.032 183.257 86.0568C183.257 87.0816 182.656 87.8236 181.738 87.9645ZM158.026 86.2688C158.804 85.9149 159.158 85.4202 159.158 84.6787C159.158 83.4065 158.345 82.8058 156.683 82.8058H154.21V89.3078H155.835V86.6575H156.012C156.295 86.6575 156.507 86.6928 156.683 86.764C156.895 86.9049 157.072 87.1179 157.214 87.4349L157.991 89.3078H159.829L158.804 87.082C158.627 86.657 158.345 86.3743 158.026 86.2688ZM156.683 85.4561H155.835V83.9724H156.683C157.213 83.9724 157.496 84.2551 157.496 84.7145C157.496 85.2087 157.249 85.4561 156.683 85.4561ZM209.406 86.2688C210.183 85.9149 210.537 85.4202 210.537 84.6787C210.537 83.4065 209.689 82.8058 207.992 82.8058H205.554V89.3078H207.179V86.6575H207.356C207.639 86.6575 207.851 86.6928 207.992 86.764C208.24 86.9049 208.381 87.1179 208.522 87.4349L209.37 89.3078H211.208L210.183 87.082C209.971 86.657 209.724 86.3743 209.406 86.2688ZM207.992 85.4561H207.179V83.9724H207.992C208.557 83.9724 208.84 84.2551 208.84 84.7145C208.84 85.2087 208.593 85.4561 207.992 85.4561ZM93.042 82.8053H92.1939L89.3316 89.3073H91.0985L91.5932 88.0352H94.4201L94.8795 89.3073H96.611L94.0668 82.8053H93.042ZM93.042 86.9397H92.0879L93.042 84.5722L93.0773 84.4666L93.9961 86.9397H93.042ZM163.963 82.8053H163.114L160.287 89.3073H162.019L162.548 88.0352H165.34L165.8 89.3073H167.531L164.987 82.8053H163.963ZM163.963 86.9397H163.008L163.963 84.5722L164.034 84.4666L164.952 86.9397H163.963ZM215.307 82.8053H214.458L211.596 89.3073H213.328L213.858 88.0352H216.649L217.144 89.3073H218.875L216.33 82.8053H215.307ZM215.307 86.9397H214.317L215.307 84.5722L215.342 84.4666L216.261 86.9397H215.307ZM102.548 86.6924L99.0492 82.8053H97.6358V89.3073H99.2613V85.2087L102.901 89.3073H104.173V82.8053H102.548V86.6924ZM225.555 89.3073H227.25V82.8053H225.555V89.3073ZM143.927 86.6924L140.429 82.8053H139.015V89.3073H140.605V85.2087L144.245 89.3073H145.517V82.8053H143.927V86.6924ZM147.001 84.0073H149.157V89.3073H150.853V84.0073H153.008V82.8053H147.001V84.0073ZM170.288 82.8053H168.663V89.3073H173.08V88.071H170.288V82.8053ZM230.396 88.071V82.8053H228.771V89.3073H233.188V88.071H230.396ZM134.527 86.5515H137.107V85.3147H134.527V84.0073H137.248V82.8053H132.866V89.3073H137.319V88.1063H134.527V86.5515ZM116.4 82.7346C115.375 82.7346 114.527 83.0173 113.891 83.6539C113.22 84.2895 112.866 85.1022 112.866 86.0926C112.866 87.0462 113.22 87.8948 113.891 88.5304C114.527 89.1316 115.375 89.4496 116.4 89.4496C117.424 89.4496 118.272 89.1316 118.908 88.5304C119.58 87.8948 119.933 87.0467 119.933 86.0926C119.933 85.1022 119.58 84.2895 118.908 83.6539C118.272 83.0173 117.424 82.7346 116.4 82.7346ZM116.4 88.071C115.305 88.071 114.527 87.2582 114.527 86.0926C114.527 84.926 115.305 84.0779 116.4 84.0779C117.46 84.0779 118.238 84.9265 118.238 86.0926C118.237 87.2577 117.46 88.071 116.4 88.071ZM189.37 82.6998C188.345 82.6998 187.497 83.0168 186.862 83.6181C186.19 84.2546 185.837 85.1017 185.837 86.0568C185.837 87.0104 186.19 87.859 186.862 88.4945C187.497 89.0957 188.345 89.4138 189.37 89.4138C190.395 89.4138 191.243 89.0957 191.878 88.4945C192.55 87.859 192.904 87.0462 192.904 86.0568C192.904 85.1022 192.55 84.2546 191.878 83.6181C191.243 83.0173 190.395 82.6998 189.37 82.6998ZM189.37 88.071C188.274 88.071 187.497 87.2224 187.497 86.0568C187.497 84.8902 188.274 84.0774 189.37 84.0774C190.43 84.0774 191.243 84.8902 191.243 86.0568C191.243 87.2224 190.43 88.071 189.37 88.071ZM107.318 86.0921C107.318 84.819 108.131 84.0774 109.438 84.0774C110.145 84.0774 110.887 84.2895 111.594 84.7847V83.2298C110.893 82.8762 110.117 82.6945 109.332 82.6998C107.071 82.6998 105.657 84.1128 105.657 86.0921C105.657 87.0457 106.011 87.9286 106.647 88.5299C107.283 89.1311 108.131 89.4491 109.191 89.4491C110.074 89.4491 110.887 89.2361 111.664 88.7772V87.2577C110.887 87.8231 110.11 88.0705 109.297 88.0705C108.095 88.071 107.318 87.2936 107.318 86.0921ZM127.142 86.0921C127.142 84.819 127.955 84.0774 129.262 84.0774C130.004 84.0774 130.711 84.2895 131.453 84.7847V83.2298C130.711 82.876 129.969 82.6998 129.156 82.6998C126.895 82.6998 125.481 84.1128 125.481 86.0921C125.481 87.0457 125.834 87.9286 126.471 88.5299C127.107 89.1311 127.955 89.4491 129.015 89.4491C129.934 89.4491 130.711 89.2361 131.488 88.7772V87.2577C130.711 87.8231 129.934 88.0705 129.156 88.0705C127.919 88.071 127.142 87.2936 127.142 86.0921ZM223.435 85.9149C222.94 85.5969 222.374 85.4202 221.809 85.2087C221.208 84.9967 220.926 84.7493 220.926 84.5025C220.926 84.1486 221.243 83.9724 221.88 83.9724C222.481 83.9724 223.187 84.1844 224 84.608V83.2652C223.258 82.9123 222.515 82.7351 221.809 82.7351C220.289 82.7351 219.335 83.5479 219.335 84.608C219.335 85.8099 220.148 86.34 221.773 86.9049C222.339 87.1179 222.657 87.2587 222.657 87.6479C222.657 88.0008 222.303 88.2123 221.668 88.2123C220.926 88.2123 220.254 87.8953 219.441 87.4006V88.8489C220.148 89.2724 220.89 89.4844 221.703 89.4844C223.363 89.4844 224.283 88.707 224.283 87.5414C224.283 86.7989 224 86.2688 223.435 85.9149ZM150.924 78.5301H162.691L164.917 76.3034H153.114V69.6605H155.341L157.567 67.4343H148.697V58.6355L146.506 60.8617V63.0526H139.863V51.2501L137.637 53.441V65.2435H144.28V71.8509H150.924V78.5301ZM146.506 53.441H155.341L157.567 51.2501H148.697V42.3806L144.28 46.833V51.2501H146.506V53.441ZM162.691 69.6605V60.8264L164.917 58.6355V67.4343H173.786L169.334 71.8509H164.917V69.6605H162.691ZM150.924 42.3806H153.114V37.9635L150.924 40.1897V42.3806ZM173.786 65.2788V63.0526H178.204L175.978 65.2788H173.786ZM162.691 53.441V44.6068L164.917 42.3806V51.2501H173.751L171.561 53.441H162.691Z" fill="black"/>
<path d="M40.0015 94.7844H275.838" stroke="black" stroke-width="4.84408" stroke-miterlimit="2.613"/>
</g>
</g>
</g>
<defs>
<clipPath id="clip0_1_966">
<rect width="235.84" height="103.17" fill="white" transform="translate(40 16)"/>
</clipPath>
<clipPath id="clip1_1_966">
<rect width="235.84" height="103.17" fill="white" transform="translate(40 16)"/>
</clipPath>
<clipPath id="clip2_1_966">
<rect width="235.84" height="59.243" fill="white" transform="translate(40 37.9635)"/>
</clipPath>
</defs>
</svg>
